<svg height="512" viewBox="0 0 32 32" width="512" xmlns="http://www.w3.org/2000/svg"><g id="Layer_2" data-name="Layer 2"><path d="m16 2a1 1 0 0 0 -1 1v4a1 1 0 0 0 2 0v-4a1 1 0 0 0 -1-1z"/><path d="m7.515 6.1a1 1 0 0 0 -1.415 1.415l2.828 2.828a1 1 0 0 0 1.414-1.414z"/><path d="m8 16a1 1 0 0 0 -1-1h-4a1 1 0 0 0 0 2h4a1 1 0 0 0 1-1z"/><path d="m8.929 21.657-2.829 2.828a1 1 0 1 0 1.415 1.415l2.828-2.828a1 1 0 0 0 -1.414-1.414z"/><path d="m16 24a1 1 0 0 0 -1 1v4a1 1 0 0 0 2 0v-4a1 1 0 0 0 -1-1z"/><path d="m23.071 21.657a1 1 0 0 0 -1.414 1.414l2.828 2.829a1 1 0 0 0 1.415-1.415z"/><path d="m29 15h-4a1 1 0 0 0 0 2h4a1 1 0 0 0 0-2z"/><path d="m22.364 10.636a1 1 0 0 0 .707-.293l2.829-2.828a1 1 0 1 0 -1.415-1.415l-2.828 2.829a1 1 0 0 0 .707 1.707z"/></g></svg>